<svg width="42" height="47" viewBox="0 0 42 47" fill="none" xmlns="http://www.w3.org/2000/svg">
<path d="M38.5088 27.9688L41.9557 9.1797C42.2046 7.82309 41.3723 6.53125 40.2493 6.53125H11.6089L10.9406 2.48347C10.774 1.47455 10.0574 0.75 9.22607 0.75H1.75C0.78349 0.75 0 1.72062 0 2.91797V4.36328C0 5.56063 0.78349 6.53125 1.75 6.53125H6.84564L11.9679 37.5544C10.7424 38.4275 9.91667 40.0645 9.91667 41.9414C9.91667 44.7352 11.7448 47 14 47C16.2552 47 18.0833 44.7352 18.0833 41.9414C18.0833 40.5255 17.6132 39.2464 16.8566 38.3281H32.1433C31.3868 39.2464 30.9167 40.5255 30.9167 41.9414C30.9167 44.7352 32.7448 47 35 47C37.2552 47 39.0833 44.7352 39.0833 41.9414C39.0833 39.9386 38.1436 38.2078 36.7807 37.3882L37.183 35.1953C37.4319 33.8387 36.5995 32.5469 35.4765 32.5469H15.9044L15.4271 29.6563H36.8023C37.6194 29.6563 38.3277 28.9558 38.5088 27.9688Z" fill="#F85220"/>
</svg>
