<svg width="15" height="15" viewBox="0 0 15 15" fill="none" xmlns="http://www.w3.org/2000/svg">
<path d="M14.4231 10.7772C14.2701 10.7772 14.1233 10.838 14.0151 10.9462C13.9069 11.0544 13.8462 11.2011 13.8462 11.3541V13.5541C13.8472 13.5922 13.8406 13.63 13.8267 13.6654C13.8129 13.7009 13.7921 13.7331 13.7656 13.7604C13.739 13.7876 13.7073 13.8093 13.6723 13.8241C13.6372 13.8389 13.5996 13.8465 13.5615 13.8465H1.43846C1.36298 13.8465 1.29058 13.8165 1.23721 13.7631C1.18383 13.7097 1.15385 13.6373 1.15385 13.5618V11.3465C1.15385 11.1934 1.09306 11.0467 0.984869 10.9385C0.876675 10.8303 0.729933 10.7695 0.576923 10.7695C0.423914 10.7695 0.277171 10.8303 0.168977 10.9385C0.0607827 11.0467 1.44917e-10 11.1934 1.44917e-10 11.3465V13.5465C-5.40696e-06 13.9287 0.1513 14.2953 0.420845 14.5663C0.69039 14.8373 1.05625 14.9906 1.43846 14.9926H13.5615C13.9424 14.9906 14.3071 14.8384 14.5765 14.5691C14.8458 14.2997 14.998 13.935 15 13.5541V11.3465C14.998 11.1948 14.9363 11.05 14.8283 10.9435C14.7204 10.8369 14.5748 10.7772 14.4231 10.7772Z" fill="#D3D3D3"/>
<path d="M4.06177 4.61581C4.13915 4.61276 4.21513 4.59416 4.28517 4.56112C4.35522 4.52808 4.41789 4.48128 4.46946 4.4235L6.94638 1.94658V10.962C6.94638 11.115 7.00717 11.2617 7.11536 11.3699C7.22355 11.4781 7.3703 11.5389 7.52331 11.5389C7.67631 11.5389 7.82306 11.4781 7.93125 11.3699C8.03945 11.2617 8.10023 11.115 8.10023 10.962V1.97735L10.531 4.4235C10.6404 4.52541 10.785 4.58089 10.9345 4.57825C11.0839 4.57561 11.2265 4.51507 11.3322 4.40937C11.4379 4.30366 11.4985 4.16106 11.5011 4.0116C11.5038 3.86213 11.4483 3.71748 11.3464 3.60812L7.931 0.169656C7.87477 0.113239 7.80747 0.0690767 7.73333 0.0399511C7.65919 0.0108256 7.57982 -0.00263229 7.50023 0.000425198C7.34727 0.000559853 7.20063 0.061431 7.09254 0.169656L3.65407 3.65427C3.57349 3.73495 3.51863 3.83771 3.49641 3.94955C3.47419 4.0614 3.48561 4.17732 3.52924 4.28267C3.57286 4.38803 3.64673 4.4781 3.74151 4.5415C3.83629 4.6049 3.94774 4.63879 4.06177 4.63889V4.61581Z" fill="#D3D3D3"/>
</svg>
